<svg width="112" height="111" viewBox="0 0 112 111" fill="none" xmlns="http://www.w3.org/2000/svg">
<path d="M56 73.1667C35.8961 73.1667 18.0178 82.1804 6.63553 96.1685C4.18577 99.1791 2.96089 100.684 3.00095 102.719C3.03191 104.291 4.0948 106.273 5.42661 107.244C7.15044 108.5 9.53927 108.5 14.3169 108.5H97.6831C102.461 108.5 104.85 108.5 106.573 107.244C107.905 106.273 108.968 104.291 108.999 102.719C109.039 100.684 107.814 99.1791 105.364 96.1685C93.9822 82.1804 76.1039 73.1667 56 73.1667Z" stroke="#6667AB" stroke-width="5" stroke-linecap="round" stroke-linejoin="round"/>
<path d="M56 55.5C71.7611 55.5 84.538 43.6355 84.538 29C84.538 14.3645 71.7611 2.5 56 2.5C40.2389 2.5 27.462 14.3645 27.462 29C27.462 43.6355 40.2389 55.5 56 55.5Z" stroke="#6667AB" stroke-width="5" stroke-linecap="round" stroke-linejoin="round"/>
</svg>
