<svg width="212" height="12" viewBox="0 0 212 12" fill="none" xmlns="http://www.w3.org/2000/svg">
<path d="M5.5643 10.648C4.8763 10.648 4.2403 10.528 3.6563 10.288C3.0723 10.056 2.5683 9.728 2.1443 9.304C1.7203 8.88 1.3883 8.38 1.1483 7.804C0.908297 7.22 0.788297 6.584 0.788297 5.896C0.788297 5.208 0.904297 4.572 1.1363 3.988C1.3763 3.404 1.7083 2.904 2.1323 2.488C2.5563 2.064 3.0603 1.736 3.6443 1.504C4.2283 1.264 4.8683 1.144 5.5643 1.144C6.2603 1.144 6.9003 1.264 7.4843 1.504C8.0683 1.736 8.5723 2.064 8.9963 2.488C9.4203 2.904 9.7483 3.404 9.9803 3.988C10.2203 4.572 10.3403 5.208 10.3403 5.896C10.3403 6.592 10.2163 7.232 9.9683 7.816C9.7283 8.392 9.3923 8.892 8.9603 9.316C8.5363 9.732 8.0323 10.056 7.4483 10.288C6.8723 10.528 6.2443 10.648 5.5643 10.648ZM5.5643 10.156C6.1803 10.156 6.7483 10.052 7.2683 9.844C7.7963 9.628 8.2483 9.332 8.6243 8.956C9.0003 8.572 9.2923 8.12 9.5003 7.6C9.7163 7.08 9.8243 6.512 9.8243 5.896C9.8243 5.28 9.7163 4.712 9.5003 4.192C9.2923 3.664 9.0003 3.212 8.6243 2.836C8.2483 2.46 7.7963 2.168 7.2683 1.96C6.7483 1.744 6.1803 1.636 5.5643 1.636C4.9483 1.636 4.3803 1.744 3.8603 1.96C3.3403 2.168 2.8883 2.46 2.5043 2.836C2.1283 3.212 1.8323 3.664 1.6163 4.192C1.4083 4.712 1.3043 5.28 1.3043 5.896C1.3043 6.504 1.4083 7.072 1.6163 7.6C1.8323 8.12 2.1283 8.568 2.5043 8.944C2.8883 9.32 3.3403 9.616 3.8603 9.832C4.3803 10.048 4.9483 10.156 5.5643 10.156ZM7.1123 8.572C6.9123 8.596 6.7203 8.616 6.5363 8.632C6.3523 8.648 6.1323 8.656 5.8763 8.656C5.4763 8.656 5.1163 8.584 4.7963 8.44C4.4763 8.296 4.2043 8.1 3.9803 7.852C3.7563 7.596 3.5843 7.296 3.4643 6.952C3.3443 6.608 3.2843 6.24 3.2843 5.848C3.2843 5.448 3.3483 5.08 3.4763 4.744C3.6043 4.4 3.7843 4.104 4.0163 3.856C4.2563 3.608 4.5403 3.416 4.8683 3.28C5.1963 3.136 5.5603 3.064 5.9603 3.064H6.2603C6.4123 3.064 6.5563 3.072 6.6923 3.088C6.8363 3.096 6.9763 3.128 7.1123 3.184C7.2163 3.224 7.2643 3.288 7.2563 3.376L7.2203 3.82C7.2203 3.884 7.1883 3.916 7.1243 3.916C7.1163 3.916 7.1083 3.916 7.1003 3.916C7.1003 3.908 7.0923 3.904 7.0763 3.904C6.9003 3.864 6.7323 3.832 6.5723 3.808C6.4203 3.776 6.2483 3.76 6.0563 3.76C5.4243 3.76 4.9483 3.956 4.6283 4.348C4.3083 4.732 4.1483 5.232 4.1483 5.848C4.1483 6.128 4.1923 6.396 4.2803 6.652C4.3683 6.908 4.4923 7.132 4.6523 7.324C4.8123 7.516 5.0043 7.672 5.2283 7.792C5.4523 7.904 5.7043 7.96 5.9843 7.96C6.2163 7.96 6.4043 7.948 6.5483 7.924C6.7003 7.9 6.8723 7.868 7.0643 7.828C7.0803 7.82 7.1043 7.816 7.1363 7.816C7.1923 7.816 7.2203 7.844 7.2203 7.9L7.2563 8.392C7.2723 8.496 7.2243 8.556 7.1123 8.572ZM15.1132 10.036C15.0252 10.036 14.9572 10.032 14.9092 10.024C14.8692 10.024 14.8372 10.016 14.8132 10C14.7972 9.976 14.7852 9.944 14.7772 9.904C14.7772 9.856 14.7772 9.788 14.7772 9.7L14.7892 9.436C14.7892 9.332 14.8212 9.248 14.8852 9.184L16.8652 7C18.3372 5.408 19.0732 4.2 19.0732 3.376C19.0732 2.896 18.9132 2.496 18.5932 2.176C18.2812 1.864 17.8932 1.708 17.4292 1.708C16.7812 1.708 16.1052 1.888 15.4012 2.248C15.2892 2.304 15.2252 2.28 15.2092 2.176L15.1372 1.78C15.1132 1.644 15.1532 1.56 15.2572 1.528C15.6652 1.344 16.0332 1.208 16.3612 1.12C16.6892 1.032 17.0252 0.987999 17.3692 0.987999C18.1372 0.987999 18.7492 1.18 19.2052 1.564C19.7172 1.98 19.9732 2.572 19.9732 3.34C19.9732 3.636 19.9012 3.96 19.7572 4.312C19.6132 4.664 19.4132 5.032 19.1572 5.416C18.9972 5.64 18.7692 5.932 18.4732 6.292C18.1852 6.652 17.8532 7.036 17.4772 7.444C17.1972 7.748 16.9172 8.056 16.6372 8.368C16.3652 8.68 16.0892 8.988 15.8092 9.292H20.0092C20.1212 9.292 20.1772 9.348 20.1772 9.46V9.868C20.1772 9.98 20.1212 10.036 20.0092 10.036H15.1132ZM27.0585 5.548C27.0585 3.036 26.3705 1.78 24.9945 1.78C23.6185 1.78 22.9305 3.036 22.9305 5.548C22.9305 8.068 23.6185 9.328 24.9945 9.328C26.3705 9.328 27.0585 8.068 27.0585 5.548ZM27.9225 5.548C27.9225 8.572 26.9465 10.084 24.9945 10.084C23.0265 10.084 22.0425 8.572 22.0425 5.548C22.0425 4.292 22.2345 3.272 22.6185 2.488C23.1065 1.504 23.8985 1.012 24.9945 1.012C26.0745 1.012 26.8625 1.504 27.3585 2.488C27.5425 2.88 27.6825 3.328 27.7785 3.832C27.8745 4.336 27.9225 4.908 27.9225 5.548ZM29.6679 10.036C29.5799 10.036 29.5119 10.032 29.4639 10.024C29.4239 10.024 29.3919 10.016 29.3679 10C29.3519 9.976 29.3399 9.944 29.3319 9.904C29.3319 9.856 29.3319 9.788 29.3319 9.7L29.3439 9.436C29.3439 9.332 29.3759 9.248 29.4399 9.184L31.4199 7C32.8919 5.408 33.6279 4.2 33.6279 3.376C33.6279 2.896 33.4679 2.496 33.1479 2.176C32.8359 1.864 32.4479 1.708 31.9839 1.708C31.3359 1.708 30.6599 1.888 29.9559 2.248C29.8439 2.304 29.7799 2.28 29.7639 2.176L29.6919 1.78C29.6679 1.644 29.7079 1.56 29.8119 1.528C30.2199 1.344 30.5879 1.208 30.9159 1.12C31.2439 1.032 31.5799 0.987999 31.9239 0.987999C32.6919 0.987999 33.3039 1.18 33.7599 1.564C34.2719 1.98 34.5279 2.572 34.5279 3.34C34.5279 3.636 34.4559 3.96 34.3119 4.312C34.1679 4.664 33.9679 5.032 33.7119 5.416C33.5519 5.64 33.3239 5.932 33.0279 6.292C32.7399 6.652 32.4079 7.036 32.0319 7.444C31.7519 7.748 31.4719 8.056 31.1919 8.368C30.9199 8.68 30.6439 8.988 30.3639 9.292H34.5639C34.6759 9.292 34.7319 9.348 34.7319 9.46V9.868C34.7319 9.98 34.6759 10.036 34.5639 10.036H29.6679ZM36.9452 10.036C36.8572 10.036 36.7892 10.032 36.7412 10.024C36.7012 10.024 36.6692 10.016 36.6452 10C36.6292 9.976 36.6172 9.944 36.6092 9.904C36.6092 9.856 36.6092 9.788 36.6092 9.7L36.6212 9.436C36.6212 9.332 36.6532 9.248 36.7172 9.184L38.6972 7C40.1692 5.408 40.9052 4.2 40.9052 3.376C40.9052 2.896 40.7452 2.496 40.4252 2.176C40.1132 1.864 39.7252 1.708 39.2612 1.708C38.6132 1.708 37.9372 1.888 37.2332 2.248C37.1212 2.304 37.0572 2.28 37.0412 2.176L36.9692 1.78C36.9452 1.644 36.9852 1.56 37.0892 1.528C37.4972 1.344 37.8652 1.208 38.1932 1.12C38.5212 1.032 38.8572 0.987999 39.2012 0.987999C39.9692 0.987999 40.5812 1.18 41.0372 1.564C41.5492 1.98 41.8052 2.572 41.8052 3.34C41.8052 3.636 41.7332 3.96 41.5892 4.312C41.4452 4.664 41.2452 5.032 40.9892 5.416C40.8292 5.64 40.6012 5.932 40.3052 6.292C40.0172 6.652 39.6852 7.036 39.3092 7.444C39.0292 7.748 38.7492 8.056 38.4692 8.368C38.1972 8.68 37.9212 8.988 37.6412 9.292H41.8412C41.9532 9.292 42.0092 9.348 42.0092 9.46V9.868C42.0092 9.98 41.9532 10.036 41.8412 10.036H36.9452ZM56.1659 10.984C56.1659 11.096 56.1099 11.152 55.9979 11.152H55.5059C55.3939 11.152 55.3379 11.096 55.3379 10.984V0.256C55.3379 0.144 55.3939 0.0879996 55.5059 0.0879996H55.9979C56.1099 0.0879996 56.1659 0.144 56.1659 0.256V10.984ZM54.5579 7.264C54.5739 7.376 54.5219 7.444 54.4019 7.468C54.2099 7.516 53.9659 7.564 53.6699 7.612C53.3819 7.66 53.0699 7.708 52.7339 7.756C52.3979 7.796 52.0459 7.836 51.6779 7.876C51.3099 7.908 50.9499 7.94 50.5979 7.972C50.2459 7.996 49.9099 8.016 49.5899 8.032C49.2779 8.04 49.0019 8.04 48.7619 8.032C48.4019 8.024 48.1539 7.94 48.0179 7.78C47.8899 7.62 47.8259 7.372 47.8259 7.036V1.828C47.8259 1.492 47.8899 1.268 48.0179 1.156C48.1459 1.044 48.3859 0.987999 48.7379 0.987999H52.8659C52.9699 0.987999 53.0219 1.036 53.0219 1.132V1.564C53.0219 1.66 52.9699 1.708 52.8659 1.708H48.8939C48.7819 1.708 48.7139 1.724 48.6899 1.756C48.6659 1.78 48.6539 1.852 48.6539 1.972V6.976C48.6539 7.096 48.6739 7.18 48.7139 7.228C48.7539 7.268 48.8299 7.288 48.9419 7.288C49.3179 7.296 49.7339 7.288 50.1899 7.264C50.6459 7.24 51.1099 7.208 51.5819 7.168C52.0619 7.12 52.5299 7.064 52.9859 7C53.4499 6.928 53.8779 6.852 54.2699 6.772C54.3979 6.748 54.4739 6.792 54.4979 6.904L54.5579 7.264ZM67.463 10.984C67.463 11.096 67.407 11.152 67.295 11.152H66.803C66.691 11.152 66.635 11.096 66.635 10.984V0.256C66.635 0.144 66.691 0.0879996 66.803 0.0879996H67.295C67.407 0.0879996 67.463 0.144 67.463 0.256V10.984ZM59.999 8.008C59.807 8.008 59.651 7.996 59.531 7.972C59.419 7.948 59.331 7.904 59.267 7.84C59.203 7.768 59.159 7.68 59.135 7.576C59.111 7.464 59.099 7.324 59.099 7.156V0.844C59.099 0.804 59.115 0.772 59.147 0.748C59.179 0.716 59.215 0.7 59.255 0.7H59.771C59.811 0.7 59.843 0.716 59.867 0.748C59.899 0.78 59.915 0.812 59.915 0.844V3.628H63.635V0.856C63.635 0.816 63.647 0.78 63.671 0.748C63.703 0.716 63.739 0.7 63.779 0.7H64.295C64.335 0.7 64.371 0.716 64.403 0.748C64.435 0.772 64.451 0.804 64.451 0.844V7.24C64.451 7.544 64.387 7.748 64.259 7.852C64.131 7.956 63.891 8.008 63.539 8.008H59.999ZM59.915 4.336V7.012C59.915 7.132 59.935 7.212 59.975 7.252C60.015 7.284 60.091 7.3 60.203 7.3H63.347C63.459 7.3 63.535 7.284 63.575 7.252C63.615 7.212 63.635 7.132 63.635 7.012V4.336H59.915ZM78.7362 10.984C78.7362 11.096 78.6802 11.152 78.5682 11.152H78.0762C77.9642 11.152 77.9082 11.096 77.9082 10.984V0.256C77.9082 0.144 77.9642 0.0879996 78.0762 0.0879996H78.5682C78.6802 0.0879996 78.7362 0.144 78.7362 0.256V10.984ZM77.1282 7.264C77.1442 7.376 77.0922 7.444 76.9722 7.468C76.7802 7.516 76.5362 7.564 76.2402 7.612C75.9522 7.66 75.6402 7.708 75.3042 7.756C74.9682 7.796 74.6162 7.836 74.2482 7.876C73.8802 7.908 73.5202 7.94 73.1682 7.972C72.8162 7.996 72.4802 8.016 72.1602 8.032C71.8482 8.04 71.5722 8.04 71.3322 8.032C70.9722 8.024 70.7242 7.94 70.5882 7.78C70.4602 7.62 70.3962 7.372 70.3962 7.036V1.828C70.3962 1.492 70.4602 1.268 70.5882 1.156C70.7162 1.044 70.9562 0.987999 71.3082 0.987999H75.4362C75.5402 0.987999 75.5922 1.036 75.5922 1.132V1.564C75.5922 1.66 75.5402 1.708 75.4362 1.708H71.4642C71.3522 1.708 71.2842 1.724 71.2602 1.756C71.2362 1.78 71.2242 1.852 71.2242 1.972V6.976C71.2242 7.096 71.2442 7.18 71.2842 7.228C71.3242 7.268 71.4002 7.288 71.5122 7.288C71.8882 7.296 72.3042 7.288 72.7602 7.264C73.2162 7.24 73.6802 7.208 74.1522 7.168C74.6322 7.12 75.1002 7.064 75.5562 7C76.0202 6.928 76.4482 6.852 76.8402 6.772C76.9682 6.748 77.0442 6.792 77.0682 6.904L77.1282 7.264ZM90.0333 10.984C90.0333 11.096 89.9773 11.152 89.8653 11.152H89.3733C89.2613 11.152 89.2053 11.096 89.2053 10.984V0.256C89.2053 0.144 89.2613 0.0879996 89.3733 0.0879996H89.8653C89.9773 0.0879996 90.0333 0.144 90.0333 0.256V10.984ZM82.5693 8.008C82.3773 8.008 82.2213 7.996 82.1013 7.972C81.9893 7.948 81.9013 7.904 81.8373 7.84C81.7733 7.768 81.7293 7.68 81.7053 7.576C81.6813 7.464 81.6693 7.324 81.6693 7.156V0.844C81.6693 0.804 81.6853 0.772 81.7173 0.748C81.7493 0.716 81.7853 0.7 81.8253 0.7H82.3413C82.3813 0.7 82.4133 0.716 82.4373 0.748C82.4693 0.78 82.4853 0.812 82.4853 0.844V3.628H86.2053V0.856C86.2053 0.816 86.2173 0.78 86.2413 0.748C86.2733 0.716 86.3093 0.7 86.3493 0.7H86.8653C86.9053 0.7 86.9413 0.716 86.9733 0.748C87.0053 0.772 87.0213 0.804 87.0213 0.844V7.24C87.0213 7.544 86.9573 7.748 86.8293 7.852C86.7013 7.956 86.4613 8.008 86.1093 8.008H82.5693ZM82.4853 4.336V7.012C82.4853 7.132 82.5053 7.212 82.5453 7.252C82.5853 7.284 82.6613 7.3 82.7733 7.3H85.9173C86.0293 7.3 86.1053 7.284 86.1453 7.252C86.1853 7.212 86.2053 7.132 86.2053 7.012V4.336H82.4853ZM101.306 5.812C101.306 5.924 101.25 5.98 101.138 5.98H100.646C100.534 5.98 100.478 5.924 100.478 5.812V0.256C100.478 0.144 100.534 0.0879996 100.646 0.0879996H101.138C101.25 0.0879996 101.306 0.144 101.306 0.256V5.812ZM95.3785 11.056C95.1865 11.056 95.0305 11.044 94.9105 11.02C94.7985 10.996 94.7105 10.948 94.6465 10.876C94.5825 10.812 94.5385 10.724 94.5145 10.612C94.4905 10.508 94.4785 10.372 94.4785 10.204V6.76C94.4785 6.72 94.4945 6.688 94.5265 6.664C94.5585 6.64 94.5945 6.628 94.6345 6.628H95.1625C95.2025 6.628 95.2345 6.644 95.2585 6.676C95.2905 6.7 95.3065 6.728 95.3065 6.76V8.032H100.478V6.784C100.478 6.744 100.49 6.708 100.514 6.676C100.546 6.644 100.582 6.628 100.622 6.628H101.15C101.19 6.628 101.226 6.644 101.258 6.676C101.29 6.7 101.306 6.732 101.306 6.772V10.288C101.306 10.592 101.242 10.796 101.114 10.9C100.986 11.004 100.746 11.056 100.394 11.056H95.3785ZM95.3065 8.752V10.048C95.3065 10.168 95.3265 10.244 95.3665 10.276C95.4065 10.316 95.4825 10.336 95.5945 10.336H100.19C100.302 10.336 100.378 10.316 100.418 10.276C100.458 10.244 100.478 10.168 100.478 10.048V8.752H95.3065ZM99.2185 5.032C99.2425 5.144 99.1905 5.212 99.0625 5.236C98.7585 5.284 98.3945 5.328 97.9705 5.368C97.5545 5.408 97.1145 5.444 96.6505 5.476C96.1945 5.5 95.7345 5.516 95.2705 5.524C94.8065 5.532 94.3785 5.532 93.9865 5.524C93.6265 5.516 93.3785 5.432 93.2425 5.272C93.1145 5.112 93.0505 4.864 93.0505 4.528V1.36C93.0505 1.024 93.1145 0.8 93.2425 0.688C93.3705 0.576 93.6105 0.52 93.9625 0.52H98.0545C98.1585 0.52 98.2105 0.568 98.2105 0.663999V1.096C98.2105 1.192 98.1585 1.24 98.0545 1.24H94.1185C94.0065 1.24 93.9385 1.256 93.9145 1.288C93.8905 1.312 93.8785 1.384 93.8785 1.504V4.468C93.8785 4.588 93.8985 4.668 93.9385 4.708C93.9785 4.748 94.0545 4.772 94.1665 4.78C94.9345 4.804 95.7345 4.796 96.5665 4.756C97.3985 4.708 98.1945 4.632 98.9545 4.528C99.0345 4.512 99.0865 4.52 99.1105 4.552C99.1425 4.576 99.1625 4.612 99.1705 4.66L99.2185 5.032ZM104.228 9.952C104.228 9.784 104.284 9.644 104.396 9.532C104.516 9.412 104.66 9.352 104.828 9.352C104.996 9.352 105.136 9.412 105.248 9.532C105.368 9.644 105.428 9.784 105.428 9.952C105.428 10.12 105.368 10.26 105.248 10.372C105.136 10.492 104.996 10.552 104.828 10.552C104.66 10.552 104.516 10.492 104.396 10.372C104.284 10.26 104.228 10.12 104.228 9.952ZM116.276 6.844C115.94 6.012 115.616 5.192 115.304 4.384C115 3.568 114.68 2.744 114.344 1.912C114.008 2.744 113.676 3.568 113.348 4.384C113.028 5.192 112.7 6.012 112.364 6.844H116.276ZM118.364 9.82C118.404 9.932 118.368 9.988 118.256 9.988H117.68C117.632 9.988 117.588 9.98 117.548 9.964C117.516 9.948 117.484 9.9 117.452 9.82L116.564 7.612H112.052C111.9 7.988 111.752 8.356 111.608 8.716C111.464 9.076 111.32 9.444 111.176 9.82C111.144 9.9 111.108 9.948 111.068 9.964C111.036 9.98 110.996 9.988 110.948 9.988H110.384C110.272 9.988 110.236 9.932 110.276 9.82L113.804 1.228C113.844 1.132 113.916 1.084 114.02 1.084H114.752C114.856 1.084 114.928 1.132 114.968 1.228L118.364 9.82ZM120.626 9.82C120.626 9.932 120.57 9.988 120.458 9.988H119.93C119.818 9.988 119.762 9.932 119.762 9.82V0.615999C119.762 0.503999 119.818 0.447999 119.93 0.447999H120.458C120.57 0.447999 120.626 0.503999 120.626 0.615999V9.82ZM123.533 9.82C123.533 9.932 123.477 9.988 123.365 9.988H122.837C122.725 9.988 122.669 9.932 122.669 9.82V0.615999C122.669 0.503999 122.725 0.447999 122.837 0.447999H123.365C123.477 0.447999 123.533 0.503999 123.533 0.615999V9.82ZM131.986 4.228C131.842 4.18 131.65 4.156 131.41 4.156C130.818 4.156 130.378 4.448 130.09 5.032C129.866 5.488 129.754 6.072 129.754 6.784V9.82C129.754 9.932 129.698 9.988 129.586 9.988H129.118C129.006 9.988 128.95 9.932 128.95 9.82V4.948C128.95 4.66 128.946 4.428 128.938 4.252C128.938 4.068 128.934 3.872 128.926 3.664C128.926 3.552 128.982 3.496 129.094 3.496H129.538C129.65 3.496 129.706 3.552 129.706 3.664V4.84C130.098 3.832 130.674 3.328 131.434 3.328C131.618 3.328 131.802 3.352 131.986 3.4C132.034 3.416 132.074 3.444 132.106 3.484C132.146 3.516 132.166 3.564 132.166 3.628V4.132C132.166 4.18 132.146 4.212 132.106 4.228C132.066 4.244 132.026 4.244 131.986 4.228ZM134.15 10.348C134.15 10.46 134.094 10.516 133.982 10.516H133.454C133.342 10.516 133.286 10.46 133.286 10.348V4.192C133.286 4.08 133.342 4.024 133.454 4.024H133.982C134.094 4.024 134.15 4.08 134.15 4.192V10.348ZM133.13 1.756C133.13 1.596 133.186 1.46 133.298 1.348C133.41 1.228 133.546 1.168 133.706 1.168C133.866 1.168 134.002 1.228 134.114 1.348C134.234 1.46 134.294 1.596 134.294 1.756C134.294 1.916 134.234 2.052 134.114 2.164C134.002 2.276 133.866 2.332 133.706 2.332C133.546 2.332 133.41 2.276 133.298 2.164C133.186 2.052 133.13 1.916 133.13 1.756ZM140.62 6.712C140.62 5.856 140.444 5.196 140.092 4.732C139.74 4.268 139.264 4.036 138.664 4.036C138.016 4.036 137.528 4.252 137.2 4.684C136.872 5.116 136.708 5.8 136.708 6.736C136.708 7.08 136.756 7.396 136.852 7.684C136.948 7.972 137.08 8.22 137.248 8.428C137.416 8.628 137.616 8.788 137.848 8.908C138.08 9.02 138.332 9.076 138.604 9.076C138.884 9.076 139.148 9.02 139.396 8.908C139.644 8.788 139.856 8.624 140.032 8.416C140.216 8.2 140.36 7.948 140.464 7.66C140.568 7.372 140.62 7.056 140.62 6.712ZM136.492 11.56C136.396 11.536 136.356 11.476 136.372 11.38L136.408 10.852C136.408 10.748 136.46 10.724 136.564 10.78C136.868 10.916 137.16 11.012 137.44 11.068C137.72 11.132 138.024 11.164 138.352 11.164C139.08 11.164 139.624 10.94 139.984 10.492C140.352 10.052 140.56 9.448 140.608 8.68C140.424 9.04 140.152 9.312 139.792 9.496C139.432 9.68 139.032 9.772 138.592 9.772C138.2 9.772 137.836 9.7 137.5 9.556C137.164 9.412 136.872 9.208 136.624 8.944C136.376 8.68 136.18 8.36 136.036 7.984C135.892 7.608 135.82 7.192 135.82 6.736C135.82 6.2 135.868 5.724 135.964 5.308C136.068 4.884 136.228 4.528 136.444 4.24C136.66 3.952 136.94 3.732 137.284 3.58C137.628 3.428 138.044 3.352 138.532 3.352C138.956 3.352 139.328 3.424 139.648 3.568C139.976 3.704 140.308 3.952 140.644 4.312L140.62 3.664C140.62 3.552 140.676 3.496 140.788 3.496H141.244C141.356 3.496 141.412 3.552 141.412 3.664V8.464C141.412 8.984 141.344 9.456 141.208 9.88C141.08 10.296 140.884 10.648 140.62 10.936C140.364 11.232 140.044 11.456 139.66 11.608C139.276 11.768 138.836 11.848 138.34 11.848C137.98 11.848 137.664 11.824 137.392 11.776C137.12 11.736 136.82 11.664 136.492 11.56ZM148.617 9.82C148.617 9.932 148.561 9.988 148.449 9.988H147.969C147.857 9.988 147.801 9.932 147.801 9.82V6.124C147.801 5.74 147.765 5.416 147.693 5.152C147.629 4.88 147.533 4.664 147.405 4.504C147.277 4.336 147.121 4.216 146.937 4.144C146.753 4.072 146.549 4.036 146.325 4.036C145.669 4.036 145.165 4.192 144.813 4.504C144.469 4.816 144.297 5.248 144.297 5.8V9.82C144.297 9.932 144.241 9.988 144.129 9.988H143.649C143.537 9.988 143.481 9.932 143.481 9.82V0.603999C143.481 0.491999 143.537 0.435999 143.649 0.435999H144.129C144.241 0.435999 144.297 0.491999 144.297 0.603999V4.084C144.521 3.828 144.797 3.644 145.125 3.532C145.461 3.412 145.877 3.352 146.373 3.352C147.149 3.352 147.717 3.58 148.077 4.036C148.437 4.492 148.617 5.184 148.617 6.112V9.82ZM153.783 10C153.447 10.12 153.115 10.18 152.787 10.18C152.139 10.18 151.711 9.968 151.503 9.544C151.367 9.256 151.299 8.748 151.299 8.02V4.192H150.171C150.059 4.192 150.003 4.136 150.003 4.024V3.664C150.003 3.552 150.059 3.496 150.171 3.496H151.299V1.876C151.299 1.756 151.351 1.696 151.455 1.696H151.959C152.063 1.696 152.115 1.756 152.115 1.876V3.496H153.447C153.559 3.496 153.615 3.552 153.615 3.664V4.024C153.615 4.136 153.559 4.192 153.447 4.192H152.115V8.428C152.115 9.14 152.403 9.496 152.979 9.496C153.203 9.496 153.455 9.448 153.735 9.352C153.775 9.336 153.811 9.336 153.843 9.352C153.883 9.368 153.903 9.4 153.903 9.448L153.927 9.76C153.943 9.872 153.895 9.952 153.783 10ZM154.794 9.196C155.282 9.396 155.786 9.496 156.306 9.496C156.738 9.496 157.094 9.392 157.374 9.184C157.654 8.968 157.794 8.68 157.794 8.32C157.794 8.112 157.714 7.912 157.554 7.72C157.402 7.52 157.214 7.356 156.99 7.228C156.742 7.092 156.486 6.964 156.222 6.844C155.966 6.716 155.718 6.584 155.478 6.448C155.19 6.288 154.978 6.092 154.842 5.86C154.706 5.62 154.638 5.372 154.638 5.116C154.638 4.82 154.694 4.56 154.806 4.336C154.918 4.112 155.07 3.924 155.262 3.772C155.454 3.62 155.678 3.508 155.934 3.436C156.19 3.364 156.462 3.328 156.75 3.328C157.054 3.328 157.318 3.344 157.542 3.376C157.766 3.408 157.99 3.456 158.214 3.52C158.262 3.536 158.302 3.56 158.334 3.592C158.374 3.624 158.39 3.668 158.382 3.724L158.346 4.084C158.338 4.148 158.314 4.188 158.274 4.204C158.234 4.22 158.194 4.22 158.154 4.204C157.954 4.132 157.754 4.084 157.554 4.06C157.354 4.028 157.114 4.012 156.834 4.012C155.906 4.012 155.442 4.38 155.442 5.116C155.442 5.276 155.502 5.428 155.622 5.572C155.75 5.716 155.962 5.86 156.258 6.004C156.514 6.132 156.766 6.256 157.014 6.376C157.262 6.488 157.53 6.624 157.818 6.784C158.066 6.92 158.27 7.128 158.43 7.408C158.598 7.688 158.682 7.992 158.682 8.32C158.682 8.64 158.618 8.916 158.49 9.148C158.362 9.38 158.19 9.572 157.974 9.724C157.758 9.876 157.51 9.988 157.23 10.06C156.95 10.14 156.662 10.18 156.366 10.18C156.19 10.18 156.03 10.176 155.886 10.168C155.75 10.16 155.618 10.148 155.49 10.132C155.37 10.116 155.246 10.096 155.118 10.072C154.99 10.048 154.854 10.016 154.71 9.976C154.598 9.936 154.546 9.864 154.554 9.76L154.602 9.316C154.618 9.188 154.682 9.148 154.794 9.196ZM166.615 4.228C166.471 4.18 166.279 4.156 166.039 4.156C165.447 4.156 165.007 4.448 164.719 5.032C164.495 5.488 164.383 6.072 164.383 6.784V9.82C164.383 9.932 164.327 9.988 164.215 9.988H163.747C163.635 9.988 163.579 9.932 163.579 9.82V4.948C163.579 4.66 163.575 4.428 163.567 4.252C163.567 4.068 163.563 3.872 163.555 3.664C163.555 3.552 163.611 3.496 163.723 3.496H164.167C164.279 3.496 164.335 3.552 164.335 3.664V4.84C164.727 3.832 165.303 3.328 166.063 3.328C166.247 3.328 166.431 3.352 166.615 3.4C166.663 3.416 166.703 3.444 166.735 3.484C166.775 3.516 166.795 3.564 166.795 3.628V4.132C166.795 4.18 166.775 4.212 166.735 4.228C166.695 4.244 166.655 4.244 166.615 4.228ZM171.935 6.292C171.935 5.964 171.903 5.672 171.839 5.416C171.775 5.16 171.675 4.928 171.539 4.72C171.243 4.248 170.815 4.012 170.255 4.012C169.679 4.012 169.211 4.252 168.851 4.732C168.707 4.948 168.587 5.196 168.491 5.476C168.395 5.756 168.343 6.028 168.335 6.292H171.935ZM168.335 6.976C168.327 7.376 168.371 7.732 168.467 8.044C168.571 8.348 168.719 8.604 168.911 8.812C169.103 9.02 169.331 9.18 169.595 9.292C169.867 9.404 170.167 9.46 170.495 9.46C170.815 9.46 171.115 9.432 171.395 9.376C171.675 9.312 171.935 9.212 172.175 9.076C172.279 9.028 172.331 9.056 172.331 9.16V9.7C172.331 9.772 172.287 9.828 172.199 9.868C171.935 9.972 171.659 10.048 171.371 10.096C171.083 10.152 170.771 10.18 170.435 10.18C169.451 10.18 168.707 9.896 168.203 9.328C167.699 8.752 167.447 7.888 167.447 6.736C167.447 5.72 167.699 4.9 168.203 4.276C168.731 3.644 169.399 3.328 170.207 3.328C170.655 3.328 171.043 3.408 171.371 3.568C171.699 3.728 171.979 3.968 172.211 4.288C172.619 4.856 172.823 5.616 172.823 6.568C172.823 6.672 172.819 6.752 172.811 6.808C172.811 6.864 172.799 6.904 172.775 6.928C172.751 6.952 172.707 6.968 172.643 6.976C172.587 6.976 172.503 6.976 172.391 6.976H168.335ZM174.142 9.196C174.63 9.396 175.134 9.496 175.654 9.496C176.086 9.496 176.442 9.392 176.722 9.184C177.002 8.968 177.142 8.68 177.142 8.32C177.142 8.112 177.062 7.912 176.902 7.72C176.75 7.52 176.562 7.356 176.338 7.228C176.09 7.092 175.834 6.964 175.57 6.844C175.314 6.716 175.066 6.584 174.826 6.448C174.538 6.288 174.326 6.092 174.19 5.86C174.054 5.62 173.986 5.372 173.986 5.116C173.986 4.82 174.042 4.56 174.154 4.336C174.266 4.112 174.418 3.924 174.61 3.772C174.802 3.62 175.026 3.508 175.282 3.436C175.538 3.364 175.81 3.328 176.098 3.328C176.402 3.328 176.666 3.344 176.89 3.376C177.114 3.408 177.338 3.456 177.562 3.52C177.61 3.536 177.65 3.56 177.682 3.592C177.722 3.624 177.738 3.668 177.73 3.724L177.694 4.084C177.686 4.148 177.662 4.188 177.622 4.204C177.582 4.22 177.542 4.22 177.502 4.204C177.302 4.132 177.102 4.084 176.902 4.06C176.702 4.028 176.462 4.012 176.182 4.012C175.254 4.012 174.79 4.38 174.79 5.116C174.79 5.276 174.85 5.428 174.97 5.572C175.098 5.716 175.31 5.86 175.606 6.004C175.862 6.132 176.114 6.256 176.362 6.376C176.61 6.488 176.878 6.624 177.166 6.784C177.414 6.92 177.618 7.128 177.778 7.408C177.946 7.688 178.03 7.992 178.03 8.32C178.03 8.64 177.966 8.916 177.838 9.148C177.71 9.38 177.538 9.572 177.322 9.724C177.106 9.876 176.858 9.988 176.578 10.06C176.298 10.14 176.01 10.18 175.714 10.18C175.538 10.18 175.378 10.176 175.234 10.168C175.098 10.16 174.966 10.148 174.838 10.132C174.718 10.116 174.594 10.096 174.466 10.072C174.338 10.048 174.202 10.016 174.058 9.976C173.946 9.936 173.894 9.864 173.902 9.76L173.95 9.316C173.966 9.188 174.03 9.148 174.142 9.196ZM183.56 6.292C183.56 5.964 183.528 5.672 183.464 5.416C183.4 5.16 183.3 4.928 183.164 4.72C182.868 4.248 182.44 4.012 181.88 4.012C181.304 4.012 180.836 4.252 180.476 4.732C180.332 4.948 180.212 5.196 180.116 5.476C180.02 5.756 179.968 6.028 179.96 6.292H183.56ZM179.96 6.976C179.952 7.376 179.996 7.732 180.092 8.044C180.196 8.348 180.344 8.604 180.536 8.812C180.728 9.02 180.956 9.18 181.22 9.292C181.492 9.404 181.792 9.46 182.12 9.46C182.44 9.46 182.74 9.432 183.02 9.376C183.3 9.312 183.56 9.212 183.8 9.076C183.904 9.028 183.956 9.056 183.956 9.16V9.7C183.956 9.772 183.912 9.828 183.824 9.868C183.56 9.972 183.284 10.048 182.996 10.096C182.708 10.152 182.396 10.18 182.06 10.18C181.076 10.18 180.332 9.896 179.828 9.328C179.324 8.752 179.072 7.888 179.072 6.736C179.072 5.72 179.324 4.9 179.828 4.276C180.356 3.644 181.024 3.328 181.832 3.328C182.28 3.328 182.668 3.408 182.996 3.568C183.324 3.728 183.604 3.968 183.836 4.288C184.244 4.856 184.448 5.616 184.448 6.568C184.448 6.672 184.444 6.752 184.436 6.808C184.436 6.864 184.424 6.904 184.4 6.928C184.376 6.952 184.332 6.968 184.268 6.976C184.212 6.976 184.128 6.976 184.016 6.976H179.96ZM189.139 4.228C188.995 4.18 188.803 4.156 188.563 4.156C187.971 4.156 187.531 4.448 187.243 5.032C187.019 5.488 186.907 6.072 186.907 6.784V9.82C186.907 9.932 186.851 9.988 186.739 9.988H186.271C186.159 9.988 186.103 9.932 186.103 9.82V4.948C186.103 4.66 186.099 4.428 186.091 4.252C186.091 4.068 186.087 3.872 186.079 3.664C186.079 3.552 186.135 3.496 186.247 3.496H186.691C186.803 3.496 186.859 3.552 186.859 3.664V4.84C187.251 3.832 187.827 3.328 188.587 3.328C188.771 3.328 188.955 3.352 189.139 3.4C189.187 3.416 189.227 3.444 189.259 3.484C189.299 3.516 189.319 3.564 189.319 3.628V4.132C189.319 4.18 189.299 4.212 189.259 4.228C189.219 4.244 189.179 4.244 189.139 4.228ZM192.79 9.832C192.75 9.936 192.67 9.988 192.55 9.988H191.962C191.842 9.988 191.766 9.936 191.734 9.832L189.622 3.664C189.606 3.624 189.61 3.588 189.634 3.556C189.658 3.516 189.694 3.496 189.742 3.496H190.282C190.378 3.496 190.45 3.552 190.498 3.664L192.274 9.16L194.122 3.664C194.138 3.616 194.166 3.576 194.206 3.544C194.246 3.512 194.29 3.496 194.338 3.496H194.866C194.914 3.496 194.95 3.516 194.974 3.556C194.998 3.588 195.002 3.624 194.986 3.664L192.79 9.832ZM200.27 6.292C200.27 5.964 200.238 5.672 200.174 5.416C200.11 5.16 200.01 4.928 199.874 4.72C199.578 4.248 199.15 4.012 198.59 4.012C198.014 4.012 197.546 4.252 197.186 4.732C197.042 4.948 196.922 5.196 196.826 5.476C196.73 5.756 196.678 6.028 196.67 6.292H200.27ZM196.67 6.976C196.662 7.376 196.706 7.732 196.802 8.044C196.906 8.348 197.054 8.604 197.246 8.812C197.438 9.02 197.666 9.18 197.93 9.292C198.202 9.404 198.502 9.46 198.83 9.46C199.15 9.46 199.45 9.432 199.73 9.376C200.01 9.312 200.27 9.212 200.51 9.076C200.614 9.028 200.666 9.056 200.666 9.16V9.7C200.666 9.772 200.622 9.828 200.534 9.868C200.27 9.972 199.994 10.048 199.706 10.096C199.418 10.152 199.106 10.18 198.77 10.18C197.786 10.18 197.042 9.896 196.538 9.328C196.034 8.752 195.782 7.888 195.782 6.736C195.782 5.72 196.034 4.9 196.538 4.276C197.066 3.644 197.734 3.328 198.542 3.328C198.99 3.328 199.378 3.408 199.706 3.568C200.034 3.728 200.314 3.968 200.546 4.288C200.954 4.856 201.158 5.616 201.158 6.568C201.158 6.672 201.154 6.752 201.146 6.808C201.146 6.864 201.134 6.904 201.11 6.928C201.086 6.952 201.042 6.968 200.978 6.976C200.922 6.976 200.838 6.976 200.726 6.976H196.67ZM203.33 6.736C203.33 7.112 203.358 7.456 203.414 7.768C203.478 8.072 203.574 8.34 203.702 8.572C203.878 8.86 204.09 9.08 204.338 9.232C204.594 9.384 204.898 9.46 205.25 9.46C205.57 9.46 205.85 9.376 206.09 9.208C206.338 9.04 206.542 8.828 206.702 8.572C206.87 8.308 206.994 8.016 207.074 7.696C207.154 7.368 207.194 7.048 207.194 6.736C207.194 6.352 207.15 5.996 207.062 5.668C206.982 5.34 206.858 5.056 206.69 4.816C206.53 4.576 206.33 4.388 206.09 4.252C205.85 4.116 205.57 4.048 205.25 4.048C204.57 4.048 204.054 4.34 203.702 4.924C203.574 5.156 203.478 5.428 203.414 5.74C203.358 6.044 203.33 6.376 203.33 6.736ZM207.998 9.82C207.998 9.932 207.942 9.988 207.83 9.988H207.362C207.25 9.988 207.194 9.932 207.194 9.82V8.92C206.762 9.736 206.066 10.144 205.106 10.144C204.25 10.144 203.582 9.816 203.102 9.16C202.662 8.552 202.442 7.744 202.442 6.736C202.442 4.488 203.33 3.364 205.106 3.364C205.586 3.364 206.01 3.46 206.378 3.652C206.754 3.844 207.026 4.092 207.194 4.396V0.615999C207.194 0.503999 207.25 0.447999 207.362 0.447999H207.83C207.942 0.447999 207.998 0.503999 207.998 0.615999V9.82ZM210.259 9.952C210.259 9.784 210.315 9.644 210.427 9.532C210.547 9.412 210.691 9.352 210.859 9.352C211.027 9.352 211.167 9.412 211.279 9.532C211.399 9.644 211.459 9.784 211.459 9.952C211.459 10.12 211.399 10.26 211.279 10.372C211.167 10.492 211.027 10.552 210.859 10.552C210.691 10.552 210.547 10.492 210.427 10.372C210.315 10.26 210.259 10.12 210.259 9.952Z" fill="#707070"/>
</svg>
