<svg width="23" height="23" viewBox="0 0 23 23" fill="none" xmlns="http://www.w3.org/2000/svg">
<path d="M3.10413 12.8799L4.67877 19.4699C4.72306 19.6552 4.7452 19.7479 4.7714 19.8288C5.02729 20.6192 5.70764 21.175 6.50265 21.243C6.58403 21.25 6.67532 21.25 6.85792 21.25C7.08657 21.25 7.20089 21.25 7.2972 21.2402C8.24912 21.1436 9.00246 20.3554 9.09479 19.3595C9.10413 19.2587 9.10413 19.1391 9.10413 18.8999V3.98664M17.6041 12.3568C19.5371 12.3568 21.1041 10.7173 21.1041 8.69483C21.1041 6.67241 19.5371 5.03291 17.6041 5.03291M9.35412 3.98664H5.60413C3.11884 3.98664 1.10412 6.09457 1.10413 8.69484C1.10413 11.2951 3.11885 13.403 5.60413 13.403H9.35413C11.1206 13.403 13.2814 14.3937 14.9484 15.3445C15.921 15.8992 16.4072 16.1765 16.7257 16.1357C17.021 16.0979 17.2443 15.9591 17.4174 15.706C17.6041 15.4329 17.6041 14.8866 17.6041 13.794V3.59564C17.6041 2.50304 17.6041 1.95674 17.4174 1.6837C17.2443 1.43052 17.021 1.29178 16.7257 1.25394C16.4072 1.21313 15.921 1.49047 14.9484 2.04515C13.2814 2.99595 11.1206 3.98664 9.35412 3.98664Z" stroke="#6667AB" stroke-width="2" stroke-linecap="round" stroke-linejoin="round"/>
</svg>
